<svg xmlns="http://www.w3.org/2000/svg" viewBox="0 0 92.59 90.02"><defs><style>.cls-1{fill:#fdc209;}</style></defs><title>Recurso 4</title><g id="Capa_2" data-name="Capa 2"><g id="OBJECTS"><path class="cls-1" d="M83.09,90H9.5A9.51,9.51,0,0,1,0,80.52V9.5A9.51,9.51,0,0,1,9.5,0H83.09a9.51,9.51,0,0,1,9.5,9.5v71A9.51,9.51,0,0,1,83.09,90ZM9.5,5A4.51,4.51,0,0,0,5,9.5v71A4.51,4.51,0,0,0,9.5,85H83.09a4.51,4.51,0,0,0,4.5-4.5V9.5A4.51,4.51,0,0,0,83.09,5Z"/><path class="cls-1" d="M30.13,4.9l-18,10.39V36.08l18,10.39,18-10.39V15.29ZM44.47,16,30.13,24.27,15.78,16,30.13,7.71ZM14.56,18.1l14.35,8.28V43L14.56,34.67ZM31.34,43V26.38L45.69,18.1V34.67Z"/><path class="cls-1" d="M63.69,5.2l-18,10.4V36.38l18,10.39,18-10.39V15.6ZM78,16.3,63.69,24.58,49.34,16.3,63.69,8ZM48.12,18.41l14.35,8.28V43.25L48.12,35ZM64.9,43.25V26.69l14.35-8.28V35Z"/><path class="cls-1" d="M30.13,43.25l-18,10.39V74.43l18,10.39,18-10.39V53.64Zm14.34,11.1L30.13,62.63,15.78,54.35l14.35-8.28ZM14.56,56.46l14.35,8.27V81.3L14.56,73ZM31.34,81.3V64.73l14.35-8.27V73Z"/><path class="cls-1" d="M63.69,43.56,45.69,54V74.73l18,10.39,18-10.39V54ZM78,54.65,63.69,62.93,49.34,54.65l14.35-8.28ZM48.12,56.76,62.47,65V81.6L48.12,73.32ZM64.9,81.6V65l14.35-8.28V73.32Z"/><path class="cls-1" d="M29.65,20h-.06a1,1,0,0,1-.94-1.06L29,13.14a1,1,0,0,1,2,.12L30.65,19A1,1,0,0,1,29.65,20Z"/><path class="cls-1" d="M34.07,17.42h-.13l-8.32-1.06a1,1,0,1,1,.25-2l8.33,1.06a1,1,0,0,1-.13,2Z"/><circle class="cls-1" cx="63.79" cy="15.78" r="2.2"/><polygon class="cls-1" points="31.34 50.9 24.91 54.65 33.37 55.92 31.34 50.9"/><path class="cls-1" d="M60.12,55.54a1,1,0,0,1-.53-1.85l4.54-2.85a1,1,0,0,1,1.06,1.7l-4.54,2.85A1,1,0,0,1,60.12,55.54Z"/><path class="cls-1" d="M62.31,57.73a1,1,0,0,1-.85-.47,1,1,0,0,1,.32-1.38L66.32,53a1,1,0,1,1,1.06,1.7l-4.54,2.85A1,1,0,0,1,62.31,57.73Z"/></g></g></svg>