<svg xmlns="http://www.w3.org/2000/svg" viewBox="0 0 92.59 90.02"><defs><style>.cls-1{fill:#eb593b;}</style></defs><title>Recurso 3</title><g id="Capa_2" data-name="Capa 2"><g id="OBJECTS"><path class="cls-1" d="M83.09,90H9.5A9.51,9.51,0,0,1,0,80.52V9.5A9.51,9.51,0,0,1,9.5,0H83.09a9.51,9.51,0,0,1,9.5,9.5v71A9.51,9.51,0,0,1,83.09,90ZM9.5,5A4.51,4.51,0,0,0,5,9.5v71A4.51,4.51,0,0,0,9.5,85H83.09a4.51,4.51,0,0,0,4.5-4.5V9.5A4.51,4.51,0,0,0,83.09,5Z"/><path class="cls-1" d="M67.63,84.33a5.92,5.92,0,0,1-2.77-.69L46.31,73.76,27.72,83.64a5.85,5.85,0,0,1-6.35-.54,6.07,6.07,0,0,1-2.28-5.91l3.53-20.87L7.68,41.58a6.14,6.14,0,0,1-1.54-6.22A6,6,0,0,1,11,31.16l20.69-3L41,9.06a5.91,5.91,0,0,1,10.67,0l9.29,19,20.7,3.05a6,6,0,0,1,4.84,4.22,6.18,6.18,0,0,1-1.56,6.21L70,56.33,73.5,77.2a6.1,6.1,0,0,1-2.29,5.91A5.83,5.83,0,0,1,67.63,84.33ZM46.31,68.09,67.22,79.23a.83.83,0,0,0,.94-.08A1.13,1.13,0,0,0,68.57,78l-4-23.44L81.4,38a1.16,1.16,0,0,0,.28-1.17,1,1,0,0,0-.78-.74L57.58,32.68,47.14,11.25a.94.94,0,0,0-1.69,0L35,32.68,11.7,36.11a1,1,0,0,0-.79.72A1.19,1.19,0,0,0,11.19,38L28,54.59,24,78a1.14,1.14,0,0,0,.39,1.11.85.85,0,0,0,.95.09Z"/><path class="cls-1" d="M57,44.74H34.37a2.5,2.5,0,1,1,0-5H57a2.5,2.5,0,0,1,0,5Z"/><path class="cls-1" d="M57,55.7H34.37a2.5,2.5,0,1,1,0-5H57a2.5,2.5,0,0,1,0,5Z"/></g></g></svg>