<svg xmlns="http://www.w3.org/2000/svg" viewBox="0 0 92.59 90.02"><defs><style>.cls-1{fill:#6ebfa0;}</style></defs><title>Recurso 2</title><g id="Capa_2" data-name="Capa 2"><g id="OBJECTS"><path class="cls-1" d="M83.09,90H9.5A9.51,9.51,0,0,1,0,80.52V9.5A9.51,9.51,0,0,1,9.5,0H83.09a9.51,9.51,0,0,1,9.5,9.5v71A9.51,9.51,0,0,1,83.09,90ZM9.5,5A4.51,4.51,0,0,0,5,9.5v71A4.51,4.51,0,0,0,9.5,85H83.09a4.51,4.51,0,0,0,4.5-4.5V9.5A4.51,4.51,0,0,0,83.09,5Z"/><path class="cls-1" d="M69,63.65a2.5,2.5,0,0,1-1.54-4.48L81.32,44.89,67.94,31.08a2.5,2.5,0,1,1,3.59-3.48L85.25,41.76a4.55,4.55,0,0,1,0,6.27L71,62.7a3.65,3.65,0,0,1-.52.45A2.45,2.45,0,0,1,69,63.65Z"/><path class="cls-1" d="M45.28,61.91a16.9,16.9,0,1,1,10.28-30.3,2.5,2.5,0,1,1-3.05,4A11.9,11.9,0,1,0,52.7,54.3a2.5,2.5,0,0,1,3.12,3.91A17,17,0,0,1,45.28,61.91Z"/><path class="cls-1" d="M45.28,69.66A24.65,24.65,0,1,1,61.16,26.17,2.5,2.5,0,0,1,57.94,30a19.66,19.66,0,1,0,.18,29.87,2.5,2.5,0,1,1,3.28,3.78A24.66,24.66,0,0,1,45.28,69.66Z"/><path class="cls-1" d="M45.28,77.05A32,32,0,1,1,66.44,21a2.5,2.5,0,0,1-3.3,3.75,27,27,0,1,0,.19,40.41,2.5,2.5,0,1,1,3.34,3.72A31.93,31.93,0,0,1,45.28,77.05Z"/><path class="cls-1" d="M45.28,84.43A39.42,39.42,0,1,1,71.7,15.76a2.5,2.5,0,1,1-3.35,3.71,34.42,34.42,0,1,0,.19,50.91,2.5,2.5,0,0,1,3.38,3.68A39.3,39.3,0,0,1,45.28,84.43Z"/></g></g></svg>