<svg xmlns="http://www.w3.org/2000/svg" viewBox="0 0 92.59 90.02"><defs><style>.cls-1{fill:#862d87;}</style></defs><title>Recurso 5</title><g id="Capa_2" data-name="Capa 2"><g id="OBJECTS"><path class="cls-1" d="M11.87,28a2.29,2.29,0,0,0,2.29-2.29V16.48A3.84,3.84,0,0,1,18,12.65h9.18a2.3,2.3,0,0,0,0-4.59H18a8.43,8.43,0,0,0-8.42,8.42v9.18A2.29,2.29,0,0,0,11.87,28Z"/><path class="cls-1" d="M27.17,76.92H18a3.84,3.84,0,0,1-3.83-3.83V63.91a2.3,2.3,0,0,0-4.59,0v9.18A8.43,8.43,0,0,0,18,81.51h9.18a2.3,2.3,0,0,0,0-4.59Z"/><path class="cls-1" d="M74.6,8.06H65.42a2.3,2.3,0,0,0,0,4.59H74.6a3.84,3.84,0,0,1,3.83,3.83v9.18a2.3,2.3,0,0,0,4.59,0V16.48A8.43,8.43,0,0,0,74.6,8.06Z"/><path class="cls-1" d="M80.72,61.62a2.3,2.3,0,0,0-2.29,2.29v9.18a3.84,3.84,0,0,1-3.83,3.83H65.42a2.3,2.3,0,0,0,0,4.59H74.6A8.42,8.42,0,0,0,83,73.09V63.91A2.3,2.3,0,0,0,80.72,61.62Z"/><path class="cls-1" d="M83.09,0H9.5A9.51,9.51,0,0,0,0,9.5v71A9.51,9.51,0,0,0,9.5,90H83.09a9.51,9.51,0,0,0,9.5-9.5V9.5A9.51,9.51,0,0,0,83.09,0Zm4.5,80.52a4.51,4.51,0,0,1-4.5,4.5H9.5A4.51,4.51,0,0,1,5,80.52V9.5A4.51,4.51,0,0,1,9.5,5H83.09a4.51,4.51,0,0,1,4.5,4.5Z"/><path class="cls-1" d="M19.33,34V57.4a6.89,6.89,0,0,0,6.89,6.88H64.87a6.89,6.89,0,0,0,6.89-6.88V34a6.9,6.9,0,0,0-6.89-6.89H58.51l-.57-2.28a6.89,6.89,0,0,0-6.68-5.21H39.83a6.89,6.89,0,0,0-6.68,5.21l-.57,2.28H26.22A6.9,6.9,0,0,0,19.33,34Zm15-2.53a2.17,2.17,0,0,0,2.11-1.65l1-3.93A2.53,2.53,0,0,1,39.83,24H51.26a2.51,2.51,0,0,1,2.45,1.91l1,3.93a2.16,2.16,0,0,0,2.11,1.64h8.06A2.53,2.53,0,0,1,67.4,34V57.4a2.53,2.53,0,0,1-2.53,2.53H26.22a2.53,2.53,0,0,1-2.53-2.53V34a2.53,2.53,0,0,1,2.53-2.53Z"/><path class="cls-1" d="M45.54,57.81a13.36,13.36,0,0,0,0-26.72h0a13.36,13.36,0,0,0,0,26.72Zm0-22.31a9,9,0,1,1-9,9A9,9,0,0,1,45.54,35.5Z"/></g></g></svg>