<?xml version="1.0" encoding="utf-8"?>
<!-- Generator: Adobe Illustrator 24.0.2, SVG Export Plug-In . SVG Version: 6.00 Build 0)  -->
<svg version="1.1" id="Capa_1" xmlns="http://www.w3.org/2000/svg" xmlns:xlink="http://www.w3.org/1999/xlink" x="0px" y="0px"
	 viewBox="0 0 648 65.7" style="enable-background:new 0 0 648 65.7;" xml:space="preserve">
<style type="text/css">
	.st0{fill:#77BE9F;}
	.st1{fill:none;stroke:#77BE9F;stroke-width:7;stroke-linecap:round;}
	.st2{clip-path:url(#SVGID_2_);fill:none;stroke:#77BE9F;stroke-width:7;stroke-linecap:round;}
	.st3{clip-path:url(#SVGID_2_);fill:#862E88;}
	.st4{clip-path:url(#SVGID_4_);fill:#E64F31;}
	.st5{clip-path:url(#SVGID_4_);fill:none;stroke:#E64F31;stroke-width:2;}
	.st6{clip-path:url(#SVGID_4_);fill:#FCC400;}
	.st7{clip-path:url(#SVGID_4_);fill:none;stroke:#FCC400;stroke-width:2;stroke-linecap:round;}
</style>
<g>
	<polygon class="st0" points="90.7,49.4 75.2,49.4 75.2,34.7 89.9,34.7 89.9,30.8 75.2,30.8 75.2,19 90.5,19 90.5,15.1 70.7,15.1 
		70.7,53.3 90.7,53.3 	"/>
	<line class="st1" x1="70.7" y1="15.1" x2="90.7" y2="15.1"/>
	<g>
		<defs>
			<rect id="SVGID_1_" y="-56" width="648" height="115.7"/>
		</defs>
		<clipPath id="SVGID_2_">
			<use xlink:href="#SVGID_1_"  style="overflow:visible;"/>
		</clipPath>
		<line class="st2" x1="70.7" y1="53.3" x2="90.7" y2="53.3"/>
		<path class="st3" d="M581.8,14.8c-2.5-0.8-5-1.2-7.6-1.2c-3.5,0-6.4,0.9-8.6,2.6c-2.3,1.8-3.4,4.2-3.4,7.4c0,1.2,0.2,2.3,0.6,3.3
			c0.4,1,1,1.9,1.8,2.7c0.8,0.8,1.6,1.4,2.4,1.9c0.8,0.5,2.6,1.3,5.3,2.6c2.7,1.2,4.5,2.4,5.5,3.6c1,1.2,1.5,2.6,1.5,4.3
			c0,2.3-0.8,4.1-2.3,5.4c-1.5,1.3-3.5,2-6.1,2c-2.2,0-4.7-0.7-7.6-2l-0.9,3.8c2.5,1.3,5.3,1.9,8.6,1.9c3.4,0,6.3-1,8.8-3.1
			c2.5-2,3.7-4.9,3.7-8.6c0-1.5-0.3-2.8-0.9-4c-0.6-1.2-1.3-2.2-2.3-3.1c-0.9-0.9-1.9-1.6-2.8-2.1c-0.9-0.5-2.8-1.4-5.6-2.7
			c-3.8-1.7-5.7-3.8-5.7-6.1c0-1.9,0.7-3.4,2.2-4.5c1.5-1.1,3.3-1.6,5.6-1.6c2,0,4.2,0.4,6.5,1.2L581.8,14.8z M526.8,35.3l5-15.8
			l5,15.8H526.8z M534.4,14.4h-5.3l-12.5,38.1h4.6l4.3-13.4H538l4.2,13.4h4.7L534.4,14.4z M504.7,14.4h-28V18h11.8v34.5h4.4V18h11.8
			V14.4z M458.9,14.8c-2.5-0.8-5-1.2-7.6-1.2c-3.5,0-6.4,0.9-8.6,2.6c-2.3,1.8-3.4,4.2-3.4,7.4c0,1.2,0.2,2.3,0.6,3.3
			c0.4,1,1,1.9,1.8,2.7c0.8,0.8,1.6,1.4,2.4,1.9c0.8,0.5,2.6,1.3,5.3,2.6c2.7,1.2,4.5,2.4,5.5,3.6c1,1.2,1.5,2.6,1.5,4.3
			c0,2.3-0.8,4.1-2.3,5.4c-1.5,1.3-3.5,2-6.1,2c-2.2,0-4.7-0.7-7.6-2l-0.9,3.8c2.5,1.3,5.3,1.9,8.6,1.9c3.4,0,6.3-1,8.8-3.1
			c2.5-2,3.7-4.9,3.7-8.6c0-1.5-0.3-2.8-0.9-4c-0.6-1.2-1.3-2.2-2.3-3.1c-0.9-0.9-1.9-1.6-2.8-2.1c-0.9-0.5-2.8-1.4-5.6-2.7
			c-3.8-1.7-5.7-3.8-5.7-6.1c0-1.9,0.7-3.4,2.2-4.5c1.5-1.1,3.3-1.6,5.6-1.6c2,0,4.2,0.4,6.5,1.2L458.9,14.8z M417.3,48.7h-6.3V18.2
			h6.3v-3.9h-17.3v3.9h6.6v30.4h-6.6v3.9h17.3V48.7z M379.3,14.4H375v29.8l-13.7-29.8h-4.9v38.1h4.4V22.4l13.7,30.1h4.9V14.4z
			 M335.3,48.7H329V18.2h6.3v-3.9H318v3.9h6.6v30.4H318v3.9h17.3V48.7z M298.1,14.4h-5.8L286,31.8l-6.4-17.4h-5.8v38.1h4.3V19.8
			l5.8,15.7h4.2l5.8-15.7v32.7h4.3V14.4z M255.1,48.7h-15.5V33.9h14.7v-3.9h-14.7V18.2h15.3v-3.9h-19.8v38.1h19.9V48.7z M214.4,14.4
			h-20.2v38.1h4.4V34.6H213v-3.9h-14.4V18.2h15.8V14.4z"/>
	</g>
	<g>
		<defs>
			<rect id="SVGID_3_" y="-56" width="648" height="115.7"/>
		</defs>
		<clipPath id="SVGID_4_">
			<use xlink:href="#SVGID_3_"  style="overflow:visible;"/>
		</clipPath>
		<path class="st4" d="M132.9,46.7c-3.1,1.8-6.1,2.7-9,2.7c-6.9,0-10.4-5.3-10.4-15.9c0-5.5,0.9-9.5,2.6-12.1
			c1.7-2.5,4.3-3.8,7.8-3.8c3,0,5.8,0.7,8.4,2.2l1.5-3.5c-1.1-0.8-2.5-1.4-4.4-1.9c-1.8-0.5-3.6-0.7-5.5-0.7
			c-5.1,0-8.9,1.8-11.4,5.3c-2.5,3.5-3.7,8.4-3.7,14.6c0,6.4,1.3,11.3,3.9,14.7c2.6,3.4,6.3,5.1,11.3,5.1c3.9,0,7.4-1,10.4-3.1
			L132.9,46.7z"/>
		<path class="st5" d="M132.9,46.7c-3.1,1.8-6.1,2.7-9,2.7c-6.9,0-10.4-5.3-10.4-15.9c0-5.5,0.9-9.5,2.6-12.1
			c1.7-2.5,4.3-3.8,7.8-3.8c3,0,5.8,0.7,8.4,2.2l1.5-3.5c-1.1-0.8-2.5-1.4-4.4-1.9c-1.8-0.5-3.6-0.7-5.5-0.7
			c-5.1,0-8.9,1.8-11.4,5.3c-2.5,3.5-3.7,8.4-3.7,14.6c0,6.4,1.3,11.3,3.9,14.7c2.6,3.4,6.3,5.1,11.3,5.1c3.9,0,7.4-1,10.4-3.1
			L132.9,46.7z"/>
		<path class="st6" d="M156.6,45.3c-1.4-2.7-2.1-6.7-2.1-11.8c0-5.1,0.7-9.1,2.1-11.8c1.4-2.7,3.5-4.1,6.3-4.1
			c5.6,0,8.4,5.3,8.4,15.9c0,10.6-2.8,15.9-8.4,15.9C160.1,49.4,158,48,156.6,45.3 M153.1,18.7c-2.2,3.4-3.4,8.3-3.4,14.7
			c0,6.4,1.1,11.3,3.4,14.7c2.2,3.4,5.5,5.1,9.7,5.1c4.3,0,7.6-1.7,9.8-5.1c2.2-3.4,3.4-8.3,3.4-14.7c0-6.5-1.1-11.4-3.4-14.7
			c-2.2-3.4-5.5-5.1-9.8-5.1C158.6,13.6,155.3,15.3,153.1,18.7"/>
		<path class="st7" d="M156.6,45.3c-1.4-2.7-2.1-6.7-2.1-11.8c0-5.1,0.7-9.1,2.1-11.8c1.4-2.7,3.5-4.1,6.3-4.1
			c5.6,0,8.4,5.3,8.4,15.9c0,10.6-2.8,15.9-8.4,15.9C160.1,49.4,158,48,156.6,45.3z M153.1,18.7c-2.2,3.4-3.4,8.3-3.4,14.7
			c0,6.4,1.1,11.3,3.4,14.7c2.2,3.4,5.5,5.1,9.7,5.1c4.3,0,7.6-1.7,9.8-5.1c2.2-3.4,3.4-8.3,3.4-14.7c0-6.5-1.1-11.4-3.4-14.7
			c-2.2-3.4-5.5-5.1-9.8-5.1C158.6,13.6,155.3,15.3,153.1,18.7z"/>
	</g>
</g>
</svg>
